<?xml version="1.0" encoding="UTF-8" standalone="no"?>
<!DOCTYPE svg PUBLIC "-//W3C//DTD SVG 1.1//EN" "http://www.w3.org/Graphics/SVG/1.1/DTD/svg11.dtd">
<svg width="100%" height="100%" viewBox="0 0 195 201" version="1.1" xmlns="http://www.w3.org/2000/svg" xmlns:xlink="http://www.w3.org/1999/xlink" xml:space="preserve" xmlns:serif="http://www.serif.com/" style="fill-rule:evenodd;clip-rule:evenodd;">
    <g transform="matrix(1,0,0,1,-188.71,-306.795505)">
        <path d="M346.06,426.77L346.06,333.74M226.83,387.2L226.83,480.12" style="fill:none;fill-rule:nonzero;stroke:white;stroke-width:13.07px;"/>
        <path d="M207.23,324.43L208.22,324.43C209.32,324.43 209.86,323.95 209.86,323C209.86,322.05 209.32,321.57 208.22,321.57L207.23,321.57L207.23,324.43ZM207.23,330.63L204.25,330.63L204.25,319.18L208.99,319.18C210.28,319.18 211.26,319.51 211.94,320.18C212.63,320.85 212.97,321.79 212.97,323C212.97,324.21 212.63,325.16 211.94,325.83C211.26,326.5 210.27,326.83 208.99,326.83L207.23,326.83L207.23,330.63Z" style="fill:rgb(29,29,27);fill-rule:nonzero;"/>
        <path d="M217.32,325.13L213.14,319.17L216.69,319.17L218.82,322.3L220.93,319.17L224.49,319.17L220.29,325.13L220.29,330.63L217.32,330.63L217.32,325.13Z" style="fill:rgb(29,29,27);fill-rule:nonzero;"/>
        <path d="M228.51,324.29L229.07,324.29C229.66,324.29 230.11,324.17 230.42,323.93C230.73,323.69 230.89,323.34 230.89,322.88C230.89,322.42 230.73,322.08 230.42,321.83C230.11,321.59 229.66,321.47 229.07,321.47L228.51,321.47L228.51,324.29ZM235.06,330.63L231.35,330.63L228.51,326.23L228.51,330.63L225.53,330.63L225.53,319.18L230.16,319.18C230.8,319.18 231.36,319.28 231.83,319.46C232.31,319.65 232.7,319.9 233.01,320.23C233.32,320.56 233.55,320.93 233.71,321.35C233.87,321.77 233.95,322.23 233.95,322.71C233.95,323.58 233.74,324.29 233.32,324.83C232.9,325.37 232.28,325.74 231.46,325.93L235.06,330.62L235.06,330.63Z" style="fill:rgb(29,29,27);fill-rule:nonzero;"/>
        <path d="M242.82,321.7L239.28,321.7L239.28,323.61L242.62,323.61L242.62,326.13L239.28,326.13L239.28,328.11L242.82,328.11L242.82,330.63L236.31,330.63L236.31,319.17L242.82,319.17L242.82,321.7Z" style="fill:rgb(29,29,27);fill-rule:nonzero;"/>
        <path d="M244.96,330.63L244.96,319.17L247.94,319.17L253.44,326.18L253.44,319.17L256.4,319.17L256.4,330.63L253.44,330.63L247.94,323.62L247.94,330.63L244.96,330.63Z" style="fill:rgb(29,29,27);fill-rule:nonzero;"/>
        <path d="M265.32,321.7L261.78,321.7L261.78,323.61L265.12,323.61L265.12,326.13L261.78,326.13L261.78,328.11L265.32,328.11L265.32,330.63L258.8,330.63L258.8,319.17L265.32,319.17L265.32,321.7Z" style="fill:rgb(29,29,27);fill-rule:nonzero;"/>
        <path d="M273.98,321.7L270.44,321.7L270.44,323.61L273.78,323.61L273.78,326.13L270.44,326.13L270.44,328.11L273.98,328.11L273.98,330.63L267.46,330.63L267.46,319.17L273.98,319.17L273.98,321.7Z" style="fill:rgb(29,29,27);fill-rule:nonzero;"/>
        <path d="M282.41,322.11C282.09,321.85 281.76,321.65 281.44,321.53C281.12,321.4 280.8,321.34 280.5,321.34C280.12,321.34 279.8,321.43 279.56,321.61C279.32,321.79 279.2,322.03 279.2,322.32C279.2,322.52 279.26,322.69 279.38,322.82C279.5,322.95 279.66,323.07 279.86,323.16C280.06,323.26 280.28,323.34 280.53,323.41C280.78,323.48 281.03,323.56 281.27,323.64C282.24,323.96 282.95,324.4 283.4,324.94C283.85,325.48 284.08,326.19 284.08,327.06C284.08,327.65 283.98,328.18 283.78,328.66C283.58,329.14 283.29,329.54 282.91,329.88C282.53,330.22 282.06,330.48 281.51,330.67C280.96,330.86 280.33,330.95 279.63,330.95C278.18,330.95 276.84,330.52 275.61,329.66L276.89,327.26C277.34,327.66 277.78,327.95 278.21,328.14C278.65,328.33 279.08,328.43 279.5,328.43C279.99,328.43 280.35,328.32 280.59,328.1C280.83,327.88 280.95,327.62 280.95,327.34C280.95,327.17 280.92,327.02 280.86,326.89C280.8,326.76 280.7,326.65 280.56,326.54C280.42,326.44 280.24,326.34 280.01,326.24C279.78,326.15 279.51,326.05 279.18,325.94C278.79,325.82 278.42,325.68 278.05,325.54C277.68,325.39 277.35,325.2 277.06,324.95C276.77,324.71 276.54,324.4 276.36,324.03C276.18,323.66 276.09,323.19 276.09,322.63C276.09,322.07 276.19,321.55 276.37,321.09C276.56,320.63 276.82,320.23 277.16,319.91C277.5,319.58 277.91,319.33 278.41,319.14C278.9,318.96 279.45,318.87 280.06,318.87C280.63,318.87 281.22,318.95 281.84,319.1C282.46,319.26 283.05,319.49 283.62,319.79L282.44,322.11L282.41,322.11Z" style="fill:rgb(29,29,27);fill-rule:nonzero;"/>
        <path d="M294.07,328.11L294.75,328.11C295.27,328.11 295.73,328.03 296.13,327.87C296.53,327.71 296.88,327.49 297.16,327.2C297.44,326.92 297.65,326.58 297.8,326.19C297.95,325.8 298.02,325.37 298.02,324.9C298.02,324.43 297.94,324.02 297.79,323.62C297.64,323.23 297.42,322.89 297.14,322.6C296.86,322.31 296.52,322.1 296.11,321.93C295.71,321.77 295.25,321.69 294.74,321.69L294.06,321.69L294.06,328.1L294.07,328.11ZM291.09,319.17L295.49,319.17C296.27,319.17 297,319.33 297.69,319.64C298.37,319.95 298.97,320.37 299.48,320.89C299.99,321.41 300.39,322.02 300.69,322.71C300.98,323.4 301.13,324.13 301.13,324.89C301.13,325.65 300.99,326.36 300.7,327.06C300.41,327.75 300.01,328.36 299.5,328.89C298.99,329.41 298.39,329.84 297.71,330.15C297.03,330.46 296.29,330.62 295.5,330.62L291.1,330.62L291.1,319.17L291.09,319.17Z" style="fill:rgb(29,29,27);fill-rule:nonzero;"/>
        <path d="M309.55,321.7L306.01,321.7L306.01,323.61L309.35,323.61L309.35,326.13L306.01,326.13L306.01,328.11L309.55,328.11L309.55,330.63L303.04,330.63L303.04,319.17L309.55,319.17L309.55,321.7Z" style="fill:rgb(29,29,27);fill-rule:nonzero;"/>
        <path d="M311.69,330.63L311.69,319.17L314.67,319.17L320.17,326.18L320.17,319.17L323.13,319.17L323.13,330.63L320.17,330.63L314.67,323.62L314.67,330.63L311.69,330.63Z" style="fill:rgb(29,29,27);fill-rule:nonzero;"/>
        <path d="M329.87,321.7L329.87,330.63L326.9,330.63L326.9,321.7L324.45,321.7L324.45,319.17L332.32,319.17L332.32,321.7L329.87,321.7Z" style="fill:rgb(29,29,27);fill-rule:nonzero;"/>
        <path d="M340.37,326.38L340.57,322.57L337.69,326.38L340.37,326.38ZM340.25,328.64L336,328.64L334.51,330.63L331.34,330.63L340.33,319.18L343.58,319.18L343.31,330.63L340.13,330.63L340.25,328.64Z" style="fill:rgb(29,29,27);fill-rule:nonzero;"/>
        <rect x="345.77" y="319.27" width="2.98" height="11.45" style="fill:rgb(29,29,27);"/>
        <path d="M354.13,324.39L354.69,324.39C355.28,324.39 355.73,324.27 356.04,324.03C356.35,323.79 356.51,323.44 356.51,322.98C356.51,322.52 356.35,322.18 356.04,321.93C355.73,321.69 355.28,321.57 354.69,321.57L354.13,321.57L354.13,324.39ZM360.67,330.72L356.96,330.72L354.12,326.32L354.12,330.72L351.14,330.72L351.14,319.27L355.77,319.27C356.41,319.27 356.97,319.37 357.44,319.55C357.91,319.73 358.31,319.99 358.62,320.32C358.93,320.64 359.16,321.02 359.32,321.44C359.48,321.86 359.56,322.32 359.56,322.8C359.56,323.67 359.35,324.38 358.93,324.92C358.51,325.46 357.89,325.83 357.07,326.02L360.67,330.71L360.67,330.72Z" style="fill:rgb(29,29,27);fill-rule:nonzero;"/>
        <path d="M368.44,321.79L364.9,321.79L364.9,323.71L368.24,323.71L368.24,326.23L364.9,326.23L364.9,328.2L368.44,328.2L368.44,330.72L361.92,330.72L361.92,319.27L368.44,319.27L368.44,321.79Z" style="fill:rgb(29,29,27);fill-rule:nonzero;"/>
        <path d="M207.23,488.56L208.22,488.56C209.32,488.56 209.86,488.08 209.86,487.13C209.86,486.18 209.32,485.7 208.22,485.7L207.23,485.7L207.23,488.56ZM207.23,494.76L204.25,494.76L204.25,483.31L208.99,483.31C210.28,483.31 211.26,483.64 211.94,484.31C212.63,484.98 212.97,485.92 212.97,487.13C212.97,488.34 212.63,489.29 211.94,489.96C211.26,490.63 210.27,490.96 208.99,490.96L207.23,490.96L207.23,494.76Z" style="fill:rgb(29,29,27);fill-rule:nonzero;"/>
        <path d="M217.31,489.26L213.13,483.31L216.69,483.31L218.82,486.44L220.93,483.31L224.48,483.31L220.29,489.26L220.29,494.76L217.31,494.76L217.31,489.26Z" style="fill:rgb(29,29,27);fill-rule:nonzero;"/>
        <path d="M228.5,488.43L229.06,488.43C229.65,488.43 230.1,488.31 230.41,488.07C230.72,487.83 230.88,487.48 230.88,487.02C230.88,486.56 230.72,486.22 230.41,485.97C230.1,485.73 229.65,485.61 229.06,485.61L228.5,485.61L228.5,488.43ZM235.05,494.76L231.34,494.76L228.5,490.36L228.5,494.76L225.52,494.76L225.52,483.31L230.15,483.31C230.79,483.31 231.35,483.41 231.82,483.59C232.3,483.78 232.69,484.03 233,484.36C233.31,484.68 233.54,485.06 233.7,485.48C233.86,485.91 233.94,486.36 233.94,486.85C233.94,487.72 233.73,488.43 233.31,488.97C232.89,489.51 232.27,489.88 231.45,490.07L235.05,494.77L235.05,494.76Z" style="fill:rgb(29,29,27);fill-rule:nonzero;"/>
        <path d="M242.82,485.83L239.28,485.83L239.28,487.74L242.62,487.74L242.62,490.27L239.28,490.27L239.28,492.24L242.82,492.24L242.82,494.76L236.3,494.76L236.3,483.31L242.82,483.31L242.82,485.83Z" style="fill:rgb(29,29,27);fill-rule:nonzero;"/>
        <path d="M244.96,494.76L244.96,483.31L247.93,483.31L253.43,490.31L253.43,483.31L256.39,483.31L256.39,494.76L253.43,494.76L247.93,487.76L247.93,494.76L244.96,494.76Z" style="fill:rgb(29,29,27);fill-rule:nonzero;"/>
        <path d="M265.31,485.83L261.77,485.83L261.77,487.74L265.11,487.74L265.11,490.27L261.77,490.27L261.77,492.24L265.31,492.24L265.31,494.76L258.8,494.76L258.8,483.31L265.31,483.31L265.31,485.83Z" style="fill:rgb(29,29,27);fill-rule:nonzero;"/>
        <path d="M273.97,485.83L270.43,485.83L270.43,487.74L273.77,487.74L273.77,490.27L270.43,490.27L270.43,492.24L273.97,492.24L273.97,494.76L267.45,494.76L267.45,483.31L273.97,483.31L273.97,485.83Z" style="fill:rgb(29,29,27);fill-rule:nonzero;"/>
        <path d="M282.4,486.24C282.08,485.98 281.75,485.78 281.43,485.66C281.11,485.53 280.79,485.47 280.49,485.47C280.11,485.47 279.79,485.56 279.55,485.74C279.31,485.92 279.19,486.16 279.19,486.45C279.19,486.65 279.25,486.82 279.37,486.95C279.49,487.08 279.65,487.2 279.85,487.29C280.05,487.39 280.27,487.47 280.52,487.54C280.77,487.61 281.02,487.69 281.26,487.77C282.23,488.09 282.94,488.53 283.39,489.07C283.84,489.61 284.07,490.32 284.07,491.19C284.07,491.78 283.97,492.31 283.77,492.79C283.57,493.27 283.28,493.67 282.9,494.01C282.52,494.35 282.05,494.61 281.5,494.8C280.95,494.99 280.32,495.08 279.62,495.08C278.17,495.08 276.83,494.65 275.6,493.79L276.88,491.39C277.33,491.79 277.77,492.08 278.2,492.27C278.64,492.46 279.07,492.56 279.49,492.56C279.98,492.56 280.34,492.45 280.58,492.23C280.82,492.01 280.94,491.75 280.94,491.47C280.94,491.3 280.91,491.15 280.85,491.02C280.79,490.89 280.69,490.78 280.55,490.67C280.41,490.57 280.23,490.47 280,490.37C279.77,490.28 279.5,490.18 279.17,490.07C278.78,489.95 278.41,489.81 278.04,489.67C277.67,489.52 277.34,489.33 277.05,489.08C276.76,488.84 276.53,488.53 276.35,488.16C276.17,487.79 276.08,487.32 276.08,486.76C276.08,486.2 276.18,485.68 276.36,485.22C276.55,484.76 276.81,484.36 277.15,484.04C277.49,483.71 277.9,483.46 278.4,483.27C278.89,483.09 279.44,483 280.05,483C280.62,483 281.21,483.08 281.83,483.23C282.45,483.39 283.04,483.62 283.61,483.92L282.43,486.24L282.4,486.24Z" style="fill:rgb(29,29,27);fill-rule:nonzero;"/>
        <path d="M294.07,492.24L294.75,492.24C295.27,492.24 295.73,492.16 296.13,492C296.53,491.84 296.88,491.62 297.16,491.33C297.44,491.05 297.65,490.71 297.8,490.32C297.95,489.93 298.02,489.5 298.02,489.03C298.02,488.56 297.94,488.15 297.79,487.75C297.64,487.36 297.42,487.02 297.14,486.73C296.86,486.45 296.52,486.23 296.11,486.06C295.71,485.9 295.25,485.82 294.74,485.82L294.06,485.82L294.06,492.23L294.07,492.24ZM291.09,483.31L295.49,483.31C296.27,483.31 297,483.47 297.69,483.78C298.37,484.09 298.97,484.51 299.48,485.03C299.99,485.55 300.39,486.16 300.69,486.85C300.98,487.54 301.13,488.27 301.13,489.03C301.13,489.79 300.99,490.5 300.7,491.2C300.41,491.89 300.01,492.5 299.5,493.03C298.99,493.55 298.39,493.98 297.71,494.29C297.03,494.6 296.29,494.76 295.5,494.76L291.1,494.76L291.1,483.31L291.09,483.31Z" style="fill:rgb(29,29,27);fill-rule:nonzero;"/>
        <path d="M309.54,485.83L306.01,485.83L306.01,487.74L309.35,487.74L309.35,490.27L306.01,490.27L306.01,492.24L309.54,492.24L309.54,494.76L303.03,494.76L303.03,483.31L309.54,483.31L309.54,485.83Z" style="fill:rgb(29,29,27);fill-rule:nonzero;"/>
        <path d="M311.69,494.76L311.69,483.31L314.66,483.31L320.16,490.31L320.16,483.31L323.12,483.31L323.12,494.76L320.16,494.76L314.66,487.76L314.66,494.76L311.69,494.76Z" style="fill:rgb(29,29,27);fill-rule:nonzero;"/>
        <path d="M329.87,485.83L329.87,494.76L326.89,494.76L326.89,485.83L324.44,485.83L324.44,483.31L332.31,483.31L332.31,485.83L329.87,485.83Z" style="fill:rgb(29,29,27);fill-rule:nonzero;"/>
        <path d="M340.37,490.51L340.57,486.7L337.69,490.51L340.37,490.51ZM340.25,492.78L336,492.78L334.51,494.77L331.34,494.77L340.33,483.32L343.58,483.32L343.31,494.77L340.13,494.77L340.25,492.78Z" style="fill:rgb(29,29,27);fill-rule:nonzero;"/>
        <rect x="345.77" y="483.41" width="2.98" height="11.45" style="fill:rgb(29,29,27);"/>
        <path d="M354.13,488.53L354.69,488.53C355.28,488.53 355.73,488.41 356.04,488.17C356.35,487.93 356.51,487.58 356.51,487.12C356.51,486.66 356.35,486.32 356.04,486.07C355.73,485.83 355.28,485.71 354.69,485.71L354.13,485.71L354.13,488.53ZM360.67,494.86L356.96,494.86L354.12,490.46L354.12,494.86L351.14,494.86L351.14,483.41L355.77,483.41C356.41,483.41 356.97,483.51 357.44,483.69C357.92,483.88 358.31,484.13 358.62,484.46C358.93,484.78 359.16,485.16 359.32,485.58C359.48,486.01 359.56,486.46 359.56,486.95C359.56,487.82 359.35,488.53 358.93,489.07C358.51,489.61 357.89,489.98 357.07,490.17L360.67,494.87L360.67,494.86Z" style="fill:rgb(29,29,27);fill-rule:nonzero;"/>
        <path d="M368.44,485.93L364.9,485.93L364.9,487.85L368.24,487.85L368.24,490.37L364.9,490.37L364.9,492.34L368.44,492.34L368.44,494.86L361.92,494.86L361.92,483.41L368.44,483.41L368.44,485.93Z" style="fill:rgb(29,29,27);fill-rule:nonzero;"/>
        <path d="M194.42,337.89L194.42,338.75C194.42,339.7 194.84,340.18 195.67,340.18C196.5,340.18 196.92,339.7 196.92,338.75L196.92,337.89L194.42,337.89ZM189.01,337.89L189.01,335.29L199.01,335.29L199.01,339.43C199.01,340.55 198.72,341.41 198.13,342.01C197.55,342.61 196.72,342.91 195.66,342.91C194.6,342.91 193.78,342.61 193.19,342.01C192.61,341.41 192.31,340.55 192.31,339.43L192.31,337.89L188.99,337.89L189.01,337.89Z" style="fill:rgb(29,29,27);fill-rule:nonzero;"/>
        <path d="M193.81,346.7L199,343.05L199,346.15L196.27,348.01L199,349.85L199,352.96L193.81,349.3L189.01,349.3L189.01,346.7L193.81,346.7Z" style="fill:rgb(29,29,27);fill-rule:nonzero;"/>
        <path d="M194.53,356.47L194.53,356.96C194.53,357.47 194.64,357.86 194.85,358.14C195.06,358.41 195.37,358.55 195.76,358.55C196.15,358.55 196.46,358.41 196.67,358.14C196.88,357.86 196.99,357.47 196.99,356.96L196.99,356.47L194.52,356.47L194.53,356.47ZM189.01,362.18L189.01,358.94L192.86,356.46L189.01,356.46L189.01,353.86L199.01,353.86L199.01,357.9C199.01,358.46 198.93,358.94 198.76,359.36C198.6,359.77 198.37,360.12 198.09,360.39C197.81,360.66 197.48,360.86 197.11,361C196.74,361.14 196.34,361.21 195.92,361.21C195.16,361.21 194.54,361.03 194.07,360.66C193.59,360.29 193.28,359.75 193.11,359.04L189.01,362.18Z" style="fill:rgb(29,29,27);fill-rule:nonzero;"/>
        <path d="M196.8,368.96L196.8,365.87L195.13,365.87L195.13,368.79L192.93,368.79L192.93,365.87L191.21,365.87L191.21,368.96L189.01,368.96L189.01,363.27L199,363.27L199,368.96L196.8,368.96Z" style="fill:rgb(29,29,27);fill-rule:nonzero;"/>
        <path d="M189.01,370.83L199,370.83L199,373.43L192.89,378.23L199,378.23L199,380.81L189.01,380.81L189.01,378.23L195.12,373.43L189.01,373.43L189.01,370.83Z" style="fill:rgb(29,29,27);fill-rule:nonzero;"/>
        <path d="M196.8,388.6L196.8,385.51L195.13,385.51L195.13,388.42L192.93,388.42L192.93,385.51L191.21,385.51L191.21,388.6L189.01,388.6L189.01,382.91L199,382.91L199,388.6L196.8,388.6Z" style="fill:rgb(29,29,27);fill-rule:nonzero;"/>
        <path d="M196.8,396.16L196.8,393.07L195.13,393.07L195.13,395.98L192.93,395.98L192.93,393.07L191.21,393.07L191.21,396.16L189.01,396.16L189.01,390.47L199,390.47L199,396.16L196.8,396.16Z" style="fill:rgb(29,29,27);fill-rule:nonzero;"/>
        <path d="M196.44,403.51C196.67,403.23 196.84,402.94 196.95,402.66C197.06,402.38 197.11,402.1 197.11,401.84C197.11,401.51 197.03,401.23 196.87,401.02C196.71,400.81 196.5,400.7 196.25,400.7C196.07,400.7 195.93,400.75 195.81,400.86C195.7,400.97 195.6,401.11 195.51,401.28C195.42,401.45 195.35,401.64 195.29,401.86C195.23,402.08 195.16,402.29 195.09,402.5C194.8,403.35 194.43,403.97 193.96,404.36C193.49,404.75 192.87,404.95 192.11,404.95C191.6,404.95 191.13,404.86 190.72,404.69C190.3,404.52 189.95,404.27 189.65,403.93C189.35,403.6 189.12,403.19 188.96,402.71C188.8,402.23 188.71,401.68 188.71,401.07C188.71,399.8 189.09,398.63 189.84,397.55L191.94,398.66C191.6,399.05 191.34,399.43 191.17,399.81C191,400.19 190.92,400.56 190.92,400.94C190.92,401.36 191.02,401.68 191.21,401.89C191.4,402.1 191.62,402.2 191.87,402.2C192.02,402.2 192.15,402.17 192.26,402.12C192.37,402.07 192.47,401.98 192.56,401.86C192.66,401.74 192.74,401.57 192.82,401.37C192.9,401.17 192.99,400.93 193.09,400.65C193.19,400.31 193.31,399.98 193.44,399.66C193.57,399.34 193.74,399.05 193.95,398.8C194.16,398.55 194.43,398.34 194.75,398.19C195.07,398.03 195.48,397.96 195.98,397.96C196.48,397.96 196.92,398.04 197.32,398.21C197.72,398.37 198.07,398.6 198.35,398.9C198.64,399.2 198.86,399.56 199.02,399.99C199.18,400.42 199.26,400.9 199.26,401.43C199.26,401.93 199.19,402.44 199.06,402.98C198.92,403.52 198.72,404.04 198.46,404.53L196.43,403.5L196.44,403.51Z" style="fill:rgb(29,29,27);fill-rule:nonzero;"/>
        <path d="M191.21,413.7L191.21,414.3C191.21,414.75 191.28,415.15 191.42,415.51C191.56,415.86 191.75,416.16 192,416.4C192.25,416.65 192.54,416.83 192.88,416.96C193.22,417.09 193.59,417.15 194,417.15C194.41,417.15 194.77,417.08 195.11,416.95C195.45,416.82 195.75,416.63 196,416.39C196.25,416.15 196.44,415.85 196.58,415.5C196.72,415.15 196.79,414.75 196.79,414.31L196.79,413.71L191.19,413.71L191.21,413.7ZM199,411.09L199,414.95C199,415.63 198.86,416.27 198.59,416.86C198.31,417.46 197.95,417.98 197.49,418.42C197.03,418.87 196.5,419.22 195.9,419.48C195.29,419.74 194.66,419.86 194,419.86C193.34,419.86 192.71,419.73 192.11,419.48C191.51,419.23 190.97,418.88 190.51,418.43C190.05,417.98 189.68,417.46 189.41,416.87C189.14,416.27 189,415.63 189,414.94L189,411.09L199,411.09Z" style="fill:rgb(29,29,27);fill-rule:nonzero;"/>
        <path d="M196.8,427.21L196.8,424.12L195.13,424.12L195.13,427.03L192.93,427.03L192.93,424.12L191.21,424.12L191.21,427.21L189.01,427.21L189.01,421.52L199,421.52L199,427.21L196.8,427.21Z" style="fill:rgb(29,29,27);fill-rule:nonzero;"/>
        <path d="M189.01,429.08L199,429.08L199,431.68L192.89,436.48L199,436.48L199,439.06L189.01,439.06L189.01,436.48L195.12,431.68L189.01,431.68L189.01,429.08Z" style="fill:rgb(29,29,27);fill-rule:nonzero;"/>
        <path d="M196.8,444.95L189.01,444.95L189.01,442.35L196.8,442.35L196.8,440.21L199,440.21L199,447.08L196.8,447.08L196.8,444.95Z" style="fill:rgb(29,29,27);fill-rule:nonzero;"/>
        <path d="M192.72,454.11L196.04,454.29L192.72,451.78L192.72,454.11ZM190.74,454L190.74,450.29L189,448.99L189,446.22L199,454.06L199,456.9L189,456.67L189,453.9L190.74,454Z" style="fill:rgb(29,29,27);fill-rule:nonzero;"/>
        <rect x="188.92" y="458.83" width="10" height="2.6" style="fill:rgb(29,29,27);"/>
        <path d="M194.45,466.12L194.45,466.61C194.45,467.12 194.56,467.51 194.77,467.79C194.98,468.06 195.29,468.2 195.68,468.2C196.07,468.2 196.38,468.06 196.59,467.79C196.8,467.51 196.91,467.12 196.91,466.61L196.91,466.12L194.44,466.12L194.45,466.12ZM188.92,471.83L188.92,468.59L192.77,466.11L188.92,466.11L188.92,463.51L198.92,463.51L198.92,467.55C198.92,468.11 198.84,468.59 198.67,469.01C198.51,469.42 198.28,469.77 198,470.04C197.72,470.31 197.39,470.51 197.02,470.65C196.65,470.79 196.25,470.86 195.83,470.86C195.07,470.86 194.45,470.68 193.98,470.31C193.51,469.94 193.19,469.4 193.02,468.69L188.92,471.83Z" style="fill:rgb(29,29,27);fill-rule:nonzero;"/>
        <path d="M196.72,478.61L196.72,475.52L195.04,475.52L195.04,478.44L192.84,478.44L192.84,475.52L191.12,475.52L191.12,478.61L188.92,478.61L188.92,472.92L198.92,472.92L198.92,478.61L196.72,478.61Z" style="fill:rgb(29,29,27);fill-rule:nonzero;"/>
        <path d="M377.56,475.77L377.56,474.91C377.56,473.96 377.14,473.48 376.31,473.48C375.48,473.48 375.06,473.96 375.06,474.91L375.06,475.77L377.56,475.77ZM382.97,475.77L382.97,478.37L372.97,478.37L372.97,474.24C372.97,473.12 373.26,472.26 373.85,471.66C374.43,471.06 375.26,470.76 376.32,470.76C377.38,470.76 378.2,471.06 378.79,471.66C379.37,472.26 379.67,473.12 379.67,474.24L379.67,475.78L382.99,475.78L382.97,475.77Z" style="fill:rgb(29,29,27);fill-rule:nonzero;"/>
        <path d="M378.17,466.97L372.97,470.61L372.97,467.51L375.7,465.66L372.97,463.81L372.97,460.71L378.17,464.37L382.97,464.37L382.97,466.97L378.17,466.97Z" style="fill:rgb(29,29,27);fill-rule:nonzero;"/>
        <path d="M377.44,457.2L377.44,456.71C377.44,456.2 377.33,455.81 377.12,455.53C376.91,455.26 376.6,455.12 376.21,455.12C375.82,455.12 375.51,455.26 375.3,455.53C375.09,455.81 374.98,456.2 374.98,456.71L374.98,457.2L377.45,457.2L377.44,457.2ZM382.97,451.48L382.97,454.72L379.12,457.2L382.97,457.2L382.97,459.8L372.97,459.8L372.97,455.76C372.97,455.2 373.05,454.72 373.22,454.3C373.38,453.89 373.61,453.54 373.89,453.27C374.17,453 374.5,452.8 374.87,452.66C375.24,452.52 375.64,452.45 376.06,452.45C376.82,452.45 377.44,452.63 377.91,453C378.38,453.37 378.7,453.91 378.87,454.62L382.97,451.48Z" style="fill:rgb(29,29,27);fill-rule:nonzero;"/>
        <path d="M375.17,444.71L375.17,447.79L376.84,447.79L376.84,444.88L379.04,444.88L379.04,447.79L380.77,447.79L380.77,444.71L382.97,444.71L382.97,450.39L372.97,450.39L372.97,444.71L375.17,444.71Z" style="fill:rgb(29,29,27);fill-rule:nonzero;"/>
        <path d="M382.97,442.84L372.97,442.84L372.97,440.24L379.08,435.44L372.97,435.44L372.97,432.85L382.97,432.85L382.97,435.44L376.86,440.24L382.97,440.24L382.97,442.84Z" style="fill:rgb(29,29,27);fill-rule:nonzero;"/>
        <path d="M375.17,425.07L375.17,428.16L376.84,428.16L376.84,425.24L379.04,425.24L379.04,428.16L380.77,428.16L380.77,425.07L382.97,425.07L382.97,430.76L372.97,430.76L372.97,425.07L375.17,425.07Z" style="fill:rgb(29,29,27);fill-rule:nonzero;"/>
        <path d="M375.17,417.51L375.17,420.6L376.84,420.6L376.84,417.68L379.04,417.68L379.04,420.6L380.77,420.6L380.77,417.51L382.97,417.51L382.97,423.2L372.97,423.2L372.97,417.51L375.17,417.51Z" style="fill:rgb(29,29,27);fill-rule:nonzero;"/>
        <path d="M375.53,410.15C375.3,410.43 375.13,410.72 375.02,411C374.91,411.28 374.86,411.56 374.86,411.82C374.86,412.16 374.94,412.43 375.1,412.64C375.26,412.85 375.47,412.96 375.73,412.96C375.91,412.96 376.05,412.91 376.17,412.8C376.28,412.69 376.38,412.55 376.47,412.38C376.56,412.21 376.63,412.01 376.69,411.8C376.75,411.58 376.82,411.37 376.89,411.16C377.18,410.31 377.55,409.69 378.02,409.3C378.49,408.91 379.11,408.71 379.87,408.71C380.38,408.71 380.85,408.8 381.26,408.97C381.68,409.14 382.03,409.39 382.33,409.73C382.63,410.06 382.86,410.47 383.02,410.95C383.18,411.43 383.26,411.98 383.26,412.59C383.26,413.86 382.89,415.03 382.14,416.11L380.04,415C380.38,414.61 380.64,414.23 380.81,413.85C380.98,413.47 381.06,413.1 381.06,412.72C381.06,412.3 380.96,411.98 380.77,411.77C380.58,411.56 380.36,411.46 380.11,411.46C379.96,411.46 379.83,411.49 379.72,411.54C379.61,411.6 379.51,411.68 379.42,411.81C379.32,411.93 379.24,412.1 379.16,412.3C379.08,412.5 378.99,412.74 378.89,413.02C378.79,413.36 378.67,413.69 378.54,414.01C378.41,414.33 378.24,414.62 378.03,414.87C377.82,415.12 377.55,415.33 377.23,415.48C376.91,415.64 376.5,415.71 376,415.71C375.5,415.71 375.06,415.63 374.66,415.46C374.26,415.3 373.91,415.07 373.63,414.77C373.34,414.47 373.12,414.11 372.96,413.68C372.8,413.25 372.72,412.77 372.72,412.24C372.72,411.74 372.79,411.23 372.92,410.69C373.06,410.15 373.26,409.63 373.52,409.14L375.55,410.17L375.53,410.15Z" style="fill:rgb(29,29,27);fill-rule:nonzero;"/>
        <path d="M380.77,399.97L380.77,399.37C380.77,398.92 380.7,398.52 380.56,398.17C380.42,397.82 380.23,397.52 379.98,397.27C379.73,397.03 379.44,396.84 379.1,396.71C378.76,396.58 378.39,396.52 377.98,396.52C377.57,396.52 377.21,396.59 376.87,396.72C376.53,396.85 376.23,397.04 375.98,397.28C375.73,397.52 375.54,397.82 375.4,398.18C375.26,398.53 375.19,398.93 375.19,399.37L375.19,399.97L380.79,399.97L380.77,399.97ZM372.97,402.58L372.97,398.72C372.97,398.04 373.11,397.4 373.38,396.81C373.66,396.21 374.02,395.69 374.48,395.25C374.94,394.8 375.47,394.45 376.07,394.19C376.68,393.93 377.31,393.81 377.97,393.81C378.63,393.81 379.26,393.94 379.86,394.19C380.46,394.44 381,394.79 381.46,395.24C381.92,395.69 382.29,396.21 382.56,396.8C382.83,397.4 382.97,398.04 382.97,398.73L382.97,402.58L372.97,402.58Z" style="fill:rgb(29,29,27);fill-rule:nonzero;"/>
        <path d="M375.17,386.46L375.17,389.55L376.84,389.55L376.84,386.63L379.04,386.63L379.04,389.55L380.77,389.55L380.77,386.46L382.97,386.46L382.97,392.15L372.97,392.15L372.97,386.46L375.17,386.46Z" style="fill:rgb(29,29,27);fill-rule:nonzero;"/>
        <path d="M382.97,384.59L372.97,384.59L372.97,381.99L379.08,377.19L372.97,377.19L372.97,374.6L382.97,374.6L382.97,377.19L376.86,381.99L382.97,381.99L382.97,384.59Z" style="fill:rgb(29,29,27);fill-rule:nonzero;"/>
        <path d="M375.17,368.72L382.97,368.72L382.97,371.32L375.17,371.32L375.17,373.45L372.97,373.45L372.97,366.58L375.17,366.58L375.17,368.72Z" style="fill:rgb(29,29,27);fill-rule:nonzero;"/>
        <path d="M379.25,359.55L375.93,359.37L379.25,361.88L379.25,359.55ZM381.23,359.66L381.23,363.37L382.97,364.67L382.97,367.44L372.97,359.6L372.97,356.76L382.97,356.99L382.97,359.76L381.23,359.66Z" style="fill:rgb(29,29,27);fill-rule:nonzero;"/>
        <rect x="373.06" y="352.24" width="10" height="2.6" style="fill:rgb(29,29,27);"/>
        <path d="M377.53,347.55L377.53,347.06C377.53,346.55 377.42,346.16 377.21,345.88C377,345.61 376.69,345.47 376.3,345.47C375.91,345.47 375.6,345.61 375.39,345.88C375.18,346.16 375.07,346.55 375.07,347.06L375.07,347.55L377.54,347.55L377.53,347.55ZM383.05,341.83L383.05,345.07L379.2,347.55L383.05,347.55L383.05,350.15L373.05,350.15L373.05,346.11C373.05,345.55 373.13,345.07 373.3,344.65C373.46,344.24 373.69,343.89 373.97,343.62C374.25,343.35 374.58,343.15 374.95,343.01C375.32,342.87 375.72,342.8 376.14,342.8C376.9,342.8 377.52,342.98 377.99,343.35C378.47,343.72 378.78,344.26 378.95,344.97L383.05,341.83Z" style="fill:rgb(29,29,27);fill-rule:nonzero;"/>
        <path d="M375.26,335.06L375.26,338.15L376.93,338.15L376.93,335.23L379.13,335.23L379.13,338.15L380.85,338.15L380.85,335.06L383.06,335.06L383.06,340.75L373.06,340.75L373.06,335.06L375.26,335.06Z" style="fill:rgb(29,29,27);fill-rule:nonzero;"/>
        <rect x="203.78" y="335.46" width="164.35" height="143.04" style="fill:rgb(205,23,25);"/>
        <path d="M300.46,381.12C275.37,381.12 255.03,401.77 255.03,427.25C255.03,452.73 275.37,473.38 300.46,473.38C325.55,473.38 345.89,452.73 345.89,427.25M345.88,427.25L345.88,334.38M345.88,427.25C345.88,401.78 325.54,381.12 300.45,381.12M272.3,433.14C297.39,433.14 317.73,412.49 317.73,387.01C317.73,361.53 297.39,340.88 272.3,340.88C247.21,340.88 226.87,361.53 226.87,387.01M226.87,387.01L226.87,479.88M226.87,387.01C226.87,412.48 247.21,433.14 272.3,433.14" style="fill:none;fill-rule:nonzero;stroke:white;stroke-width:13.07px;"/>
    </g>
</svg>
